<?xml version="1.0" encoding="utf-8"?>
<!-- Generator: Adobe Illustrator 26.2.1, SVG Export Plug-In . SVG Version: 6.00 Build 0)  -->
<svg version="1.1" xmlns="http://www.w3.org/2000/svg" xmlns:xlink="http://www.w3.org/1999/xlink" x="0px" y="0px"
	 viewBox="0 0 4359.69 355.34" style="enable-background:new 0 0 4359.69 355.34;" xml:space="preserve">
<style type="text/css">
	.st0{fill:#FFFFFF;}
	.st1{fill:#F37421;}
	.st2{fill:#00512F;}
</style>
<g id="Layer_1">
	<g id="Orange">
		<rect x="290.03" y="3.45" class="st0" width="309.97" height="264.19"/>
		<polygon class="st1" points="337.11,3.45 384.2,159.42 445.01,3.45 505.18,159.42 552.59,3.45 		"/>
		<polygon class="st1" points="378.31,268.55 444.85,117.82 511.39,268.55 		"/>
		<polygon class="st1" points="514.33,268.55 600,268.55 600,4.03 		"/>
	</g>
	<g id="Green">
		<polygon class="st2" points="42.83,3.45 42.83,267.97 375.7,268.63 290.03,3.45 		"/>
	</g>
	<g id="C">
		<polygon class="st1" points="0,69.82 0,201.6 162.83,135.71 		"/>
		<path id="Outer_Ellipse_00000125586812563691219090000012772586755769664654_" class="st0" d="M218.98,268.34
			c59.87-15.98,103.89-69.4,103.89-133.2c0-62.08-40.28-114.46-97.68-131.97h-86.64c-56.68,17.93-97.68,70.4-97.68,131.97
			c0,62.96,43.01,116.38,101.67,133.13L218.98,268.34z"/>
		<path class="st1" d="M280.56,134.65c0,54.81-44.43,99.24-99.24,99.24c-43.74,0-80.87-28.3-94.09-67.59
			c-3.34-9.94-5.15-20.59-5.15-31.65c0-10.28,1.56-20.19,4.46-29.51c12.56-40.4,50.25-69.73,94.78-69.73
			C236.12,35.41,280.56,79.84,280.56,134.65z"/>
		<path class="st2" d="M86.53,105.14c12.56-40.4,50.25-69.73,94.78-69.73c54.81,0,99.24,44.43,99.24,99.24s-44.43,99.24-99.24,99.24
			c-43.74,0-80.87-28.3-94.09-67.59"/>
		<polygon class="st1" points="86.43,104.88 86.97,166.4 163.2,135.87 		"/>
		<path class="st2" d="M287.02,247.62l-85.6-107.17l84.74-110.52L287.02,247.62z M287.02,247.62l56.93-75.02l-32.07-99.28
			l-25.72-43.38L287.02,247.62z"/>
		<polyline class="st0" points="143.09,268.17 220.65,268.17 143.09,268.17 		"/>
	</g>
</g>
<g id="Layer_2">
	<g>
		<path class="st2" d="M769.26,252.33c-19.37-11.83-34.16-27.67-44.37-47.5c-10.21-19.84-15.31-41.7-15.31-65.6
			c0-25.28,5.51-47.9,16.53-67.86c11.02-19.95,26.5-35.55,46.46-46.81c19.95-11.25,42.57-16.88,67.86-16.88
			c11.36,0,21.98,1.22,31.84,3.65c9.86,2.44,18.04,5.22,24.53,8.35c6.49,3.13,10.79,5.74,12.88,7.83l-17.05,34.8
			c-14.15-12.53-32.6-18.79-55.33-18.79c-16.01,0-30.51,3.95-43.5,11.83c-13,7.89-23.2,19.14-30.62,33.76
			c-7.43,14.62-11.14,31.55-11.14,50.81c0,17.63,3.31,33.64,9.92,48.02c6.61,14.39,16.3,25.75,29.06,34.1
			c12.76,8.35,27.95,12.53,45.59,12.53c20.41,0,40.13-5.8,59.16-17.4l11.48,33.06c-5.11,4.64-14.44,9.11-28.01,13.4
			c-13.57,4.29-27.32,6.44-41.24,6.44C811.54,270.08,788.62,264.16,769.26,252.33z"/>
		<path class="st2" d="M975.79,259.99c-12.76-7.42-22.62-17.51-29.58-30.28c-6.96-12.76-10.44-26.91-10.44-42.46
			c0-15.31,3.42-29.35,10.27-42.11c6.84-12.76,16.64-22.85,29.41-30.28c12.76-7.42,27.49-11.14,44.2-11.14
			c16.7,0,31.37,3.71,44.02,11.14c12.64,7.43,22.39,17.52,29.23,30.28c6.84,12.76,10.27,26.8,10.27,42.11
			c0,15.55-3.48,29.7-10.44,42.46c-6.96,12.76-16.76,22.85-29.41,30.28c-12.65,7.43-27.2,11.14-43.67,11.14
			C1003.16,271.12,988.55,267.42,975.79,259.99z M1052.52,225.54c7.77-9.97,11.66-22.5,11.66-37.58c0-15.08-4.18-27.78-12.53-38.11
			c-8.35-10.32-19.37-15.49-33.06-15.49c-13.22,0-23.84,5.11-31.84,15.31c-8,10.21-12.01,22.97-12.01,38.28
			c0,14.85,4.29,27.32,12.88,37.41c8.58,10.09,19.6,15.14,33.06,15.14C1034.13,240.5,1044.75,235.51,1052.52,225.54z"/>
		<path class="st2" d="M1143.17,107.91h37.58v28.88c5.1-10.9,12.58-19.14,22.45-24.71c9.86-5.57,21.17-8.35,33.93-8.35
			c28.54,0.23,46.05,10.09,52.55,29.58c5.1-9.05,12.76-16.24,22.97-21.58c10.21-5.33,20.99-8,32.36-8c16.7,0,29.35,3.19,37.93,9.57
			c8.58,6.38,14.32,15.43,17.23,27.14c2.9,11.72,4.35,27.44,4.35,47.15v80.04h-37.93v-80.39c0-18.79-1.91-32.24-5.74-40.37
			c-3.83-8.12-11.2-12.18-22.1-12.18c-14.62,0-25.7,4.93-33.23,14.79c-7.54,9.86-11.31,22.79-11.31,38.8v79.34h-37.58v-85.96
			c0-12.29-0.47-21.46-1.39-27.49c-0.93-6.03-3.48-10.79-7.66-14.27c-4.18-3.48-10.91-5.22-20.18-5.22
			c-8.12,0-15.72,2.44-22.79,7.31c-7.08,4.87-12.76,11.43-17.05,19.66c-4.3,8.24-6.44,17.11-6.44,26.62v79.34h-37.93V107.91z"/>
		<path class="st2" d="M1452.54,107.91h37.58v28.88c5.1-10.9,12.58-19.14,22.45-24.71c9.86-5.57,21.17-8.35,33.93-8.35
			c28.54,0.23,46.05,10.09,52.55,29.58c5.1-9.05,12.76-16.24,22.97-21.58c10.21-5.33,20.99-8,32.36-8c16.7,0,29.35,3.19,37.93,9.57
			c8.58,6.38,14.32,15.43,17.23,27.14c2.9,11.72,4.35,27.44,4.35,47.15v80.04h-37.93v-80.39c0-18.79-1.91-32.24-5.74-40.37
			c-3.83-8.12-11.2-12.18-22.1-12.18c-14.62,0-25.7,4.93-33.23,14.79c-7.54,9.86-11.31,22.79-11.31,38.8v79.34h-37.58v-85.96
			c0-12.29-0.47-21.46-1.39-27.49c-0.93-6.03-3.48-10.79-7.66-14.27c-4.18-3.48-10.91-5.22-20.18-5.22
			c-8.12,0-15.72,2.44-22.79,7.31c-7.08,4.87-12.76,11.43-17.05,19.66c-4.3,8.24-6.44,17.11-6.44,26.62v79.34h-37.93V107.91z"/>
		<path class="st2" d="M1771.83,251.64c-8.24-12.99-12.35-31.09-12.35-54.29v-89.44h37.58v80.04c0,13.22,0.75,23.49,2.26,30.8
			c1.51,7.31,4.52,12.7,9.05,16.18s11.31,5.22,20.36,5.22c6.49,0,12.76-1.85,18.79-5.57c6.03-3.71,10.96-8.75,14.79-15.14
			c3.83-6.38,5.74-13.4,5.74-21.05v-90.48h37.24v159.73h-30.62l-4.18-23.32c-5.8,9.05-13.05,15.78-21.75,20.18
			c-8.7,4.4-19.2,6.61-31.49,6.61C1795.2,271.12,1780.06,264.63,1771.83,251.64z"/>
		<path class="st2" d="M1955.4,107.91h36.89l0.35,29.23c4.4-9.74,11.36-17.75,20.88-24.01c9.51-6.26,20.65-9.4,33.41-9.4
			c16.47,0,29.11,3.43,37.93,10.27c8.81,6.85,14.73,16.42,17.75,28.71c3.01,12.3,4.52,28.31,4.52,48.02v76.91h-37.58v-75.86
			c0-20.18-1.97-34.74-5.92-43.67c-3.95-8.93-12.07-13.4-24.36-13.4c-6.96,0-14.04,2.15-21.23,6.44
			c-7.19,4.3-13.17,10.5-17.92,18.62c-4.76,8.12-7.13,17.63-7.13,28.54v79.34h-37.58V107.91z"/>
		<path class="st2" d="M2159.33,70.68c-4.87-4.87-7.31-10.9-7.31-18.1c0-6.49,2.44-12.06,7.31-16.7c4.87-4.64,10.9-6.96,18.1-6.96
			c6.96,0,12.88,2.32,17.75,6.96c4.87,4.64,7.31,10.21,7.31,16.7c0,7.19-2.38,13.22-7.13,18.1c-4.76,4.87-10.73,7.31-17.92,7.31
			C2170.23,77.98,2164.2,75.55,2159.33,70.68z M2158.28,107.91h38.98v159.73h-38.98V107.91z"/>
		<path class="st2" d="M2263.37,138.54h-28.19v-30.62h28.19V42.84l37.93-8.35v73.43h36.89v30.62h-36.89v129.11h-37.93V138.54z"/>
		<path class="st2" d="M2414.75,272.52l-66.12-164.6h42.46l34.1,101.62l7.66,24.71l7.66-24.71l35.84-101.62h41.06l-98.14,247.43
			h-38.98L2414.75,272.52z"/>
		<path class="st2" d="M2759.27,176.47l61.25-164.6h41.41l-99.53,255.78h-4.87L2687.93,102l-69.25,165.3h-4.87l-99.53-255.43h41.41
			l61.25,164.6l70.29-166h2.09L2759.27,176.47z"/>
		<path class="st2" d="M2887.67,70.68c-4.87-4.87-7.31-10.9-7.31-18.1c0-6.49,2.44-12.06,7.31-16.7c4.87-4.64,10.9-6.96,18.1-6.96
			c6.96,0,12.88,2.32,17.75,6.96c4.87,4.64,7.31,10.21,7.31,16.7c0,7.19-2.38,13.22-7.13,18.1c-4.76,4.87-10.73,7.31-17.92,7.31
			C2898.58,77.98,2892.55,75.55,2887.67,70.68z M2886.63,107.91h38.97v159.73h-38.97V107.91z"/>
		<path class="st2" d="M2976.76,107.91h37.58v31.32c3.71-10.67,9.74-19.25,18.1-25.75c8.35-6.49,17.86-9.74,28.54-9.74
			c7.42,0,12.53,0.7,15.31,2.09l-5.22,37.93c-2.09-1.39-6.61-2.09-13.57-2.09c-10.91,0-20.83,3.48-29.75,10.44
			c-8.93,6.96-13.4,18.1-13.4,33.41v82.13h-37.58V107.91z"/>
		<path class="st2" d="M3130.57,259.81c-12.76-7.54-22.16-17.63-28.19-30.28c-6.04-12.64-9.05-26.5-9.05-41.59
			c0-16.93,3.54-31.78,10.61-44.54c7.07-12.76,16.88-22.56,29.41-29.41c12.53-6.84,26.68-10.27,42.46-10.27
			c24.59,0,42.86,6.79,54.81,20.36c11.95,13.57,17.92,32.66,17.92,57.25c0,6.26-0.35,12.76-1.04,19.49h-114.84
			c2.55,14.15,7.6,24.36,15.14,30.62c7.54,6.26,18.04,9.4,31.49,9.4c11.14,0,20.3-0.92,27.49-2.78c7.19-1.85,13.8-4.4,19.84-7.66
			l11.48,26.8c-5.8,3.71-13.69,6.96-23.66,9.74c-9.98,2.78-22.04,4.18-36.19,4.18C3159.22,271.12,3143.33,267.36,3130.57,259.81z
			 M3212,174.73c0.23-14.38-2.9-24.53-9.4-30.45c-6.5-5.92-15.78-8.87-27.84-8.87c-24.36,0-38.4,13.11-42.11,39.32H3212z"/>
		<path class="st2" d="M3295.87,263.99c-4.87-4.75-7.31-10.61-7.31-17.57c0-7.19,2.38-13.16,7.13-17.92
			c4.75-4.75,10.73-7.13,17.92-7.13c7.19,0,13.16,2.38,17.92,7.13c4.75,4.76,7.13,10.73,7.13,17.92c0,6.96-2.38,12.82-7.13,17.57
			c-4.76,4.75-10.73,7.13-17.92,7.13C3306.66,271.12,3300.74,268.74,3295.87,263.99z"/>
		<path class="st2" d="M3457.34,148.28l-16.01-36.19l-7.31,36.19l-23.66,119.36h-38.63l52.9-255.78h4.18l70.29,138.16l20.88,46.28
			l20.88-46.28l68.9-138.16h3.83l54.98,255.78h-38.28l-25.75-119.36l-7.66-36.19l-13.92,36.19l-61.95,119.36h-2.09L3457.34,148.28z"
			/>
		<path class="st2" d="M3704.41,70.68c-4.87-4.87-7.31-10.9-7.31-18.1c0-6.49,2.44-12.06,7.31-16.7c4.87-4.64,10.9-6.96,18.1-6.96
			c6.96,0,12.88,2.32,17.75,6.96c4.87,4.64,7.31,10.21,7.31,16.7c0,7.19-2.38,13.22-7.13,18.1c-4.76,4.87-10.73,7.31-17.92,7.31
			C3715.32,77.98,3709.29,75.55,3704.41,70.68z M3703.37,107.91h38.97v159.73h-38.97V107.91z"/>
		<path class="st2" d="M3825.34,260.86c-12.18-6.84-21.92-16.58-29.23-29.23c-7.31-12.64-10.96-27.43-10.96-44.37
			c0-16.7,3.19-31.32,9.57-43.85c6.38-12.53,15.49-22.27,27.32-29.23c11.83-6.96,25.75-10.44,41.76-10.44
			c9.28,0,17.98,1.63,26.1,4.87c8.12,3.25,14.96,7.25,20.53,12.01c5.57,4.76,9.28,9.46,11.14,14.09l0.7-26.8h35.84v159.73h-35.49
			l-0.7-28.19c-3.95,8.35-11.13,15.72-21.58,22.1c-10.44,6.38-22.16,9.57-35.15,9.57C3850.8,271.12,3837.52,267.7,3825.34,260.86z
			 M3904.86,226.06c9.05-9.16,13.57-21.17,13.57-36.02v-2.44c0-9.97-2.09-18.91-6.26-26.8c-4.18-7.88-9.86-14.03-17.05-18.44
			c-7.2-4.4-15.08-6.61-23.66-6.61c-14.85,0-26.33,4.82-34.45,14.44c-8.12,9.63-12.18,22.1-12.18,37.41c0,15.55,4,28.13,12.01,37.76
			c8,9.63,19.54,14.44,34.63,14.44C3884.67,239.8,3895.81,235.23,3904.86,226.06z"/>
		<path class="st2" d="M4008.56,107.91h37.58v28.88c5.1-10.9,12.58-19.14,22.45-24.71c9.86-5.57,21.17-8.35,33.93-8.35
			c28.54,0.23,46.05,10.09,52.55,29.58c5.1-9.05,12.76-16.24,22.97-21.58c10.21-5.33,20.99-8,32.36-8c16.71,0,29.35,3.19,37.93,9.57
			c8.58,6.38,14.32,15.43,17.22,27.14c2.9,11.72,4.35,27.44,4.35,47.15v80.04h-37.93v-80.39c0-18.79-1.91-32.24-5.74-40.37
			c-3.83-8.12-11.2-12.18-22.1-12.18c-14.62,0-25.7,4.93-33.23,14.79c-7.54,9.86-11.31,22.79-11.31,38.8v79.34h-37.58v-85.96
			c0-12.29-0.47-21.46-1.39-27.49c-0.93-6.03-3.48-10.79-7.66-14.27s-10.91-5.22-20.18-5.22c-8.12,0-15.72,2.44-22.79,7.31
			c-7.08,4.87-12.76,11.43-17.05,19.66c-4.3,8.24-6.44,17.11-6.44,26.62v79.34h-37.93V107.91z"/>
		<path class="st2" d="M4321.76,70.68c-4.87-4.87-7.31-10.9-7.31-18.1c0-6.49,2.44-12.06,7.31-16.7c4.87-4.64,10.9-6.96,18.1-6.96
			c6.96,0,12.88,2.32,17.75,6.96c4.87,4.64,7.31,10.21,7.31,16.7c0,7.19-2.38,13.22-7.13,18.1c-4.76,4.87-10.73,7.31-17.92,7.31
			C4332.66,77.98,4326.63,75.55,4321.76,70.68z M4320.71,107.91h38.97v159.73h-38.97V107.91z"/>
	</g>
</g>
</svg>
